<svg xmlns="http://www.w3.org/2000/svg" width="887" height="150" viewBox="0 0 887 150">
  <g fill="none" fill-rule="evenodd">
    <path fill="#000" fill-opacity=".548" fill-rule="nonzero" d="M747.5803,111.596283 L751.408925,111.090949 L747.835239,112.554677 C747.634294,112.636981 746.54643,112.445282 744.599127,111.989166 C745.590499,111.858714 746.584223,111.727753 747.5803,111.596283 Z M744.599127,111.989166 L744.416851,112.013148 C744.4776,112.005156 744.538359,111.997162 744.599127,111.989166 Z M744.416851,112.013148 C736.443174,110.0788 713.210829,103.529994 676.921043,93.0470111 C647.609803,84.5799119 607.784925,72.9208753 602.04516,71.1720326 C576.940061,63.5227882 526.053438,52.3506138 489.665499,46.4306558 C488.796441,46.2892685 485.182879,45.6267443 484.745649,45.5498218 C480.511753,44.8049456 477.232888,44.4173192 473.998553,44.3958584 C469.886931,44.3685765 466.379065,44.9857507 463.50178,46.3866894 C460.54177,47.8279064 457.573623,49.6384621 454.345167,52.2950284 C449.628297,56.1763497 445.536794,61.0102508 442.398856,66.9326884 C441.070234,69.4402853 439.971438,73.0990147 438.723028,78.6374442 C438.592111,79.2182405 437.081287,86.2448972 436.65808,87.9760809 C436.221424,89.7622801 435.828588,91.0909555 435.430117,92.071643 C434.935222,93.2896439 434.503274,94.2230064 434.075243,94.9905412 C433.236655,96.4942792 432.376,97.4405173 431.022581,98.4007057 C430.352127,98.8763617 430.113502,99.0234156 427.972695,100.309056 C425.925535,101.538458 423.601579,101.775759 420.288494,101.250429 C418.946603,101.037656 417.47927,100.71509 415.270728,100.167532 C414.861662,100.066114 414.439234,99.9601736 413.842243,99.8095957 C413.101955,99.6226871 412.707142,99.523053 412.33444,99.4294006 C411.07341,99.1125286 410.078086,98.8677813 409.062115,98.6272026 C408.859677,98.5792659 407.26648,98.2144582 406.7665,98.0989051 C405.358589,97.7735151 403.991308,97.4506557 402.542717,97.0986731 C398.481305,96.1118202 394.562717,95.0850438 390.884391,94.0154083 C384.494822,92.1573588 379.456682,90.3505782 376.221988,88.6387473 C374.626103,87.7941893 373.060161,86.8890304 371.523326,85.9295604 C368.694714,84.1636141 366.07528,82.2878225 363.572942,80.3023032 C362.661657,79.5792297 361.820961,78.8859759 360.931913,78.1323445 C360.659737,77.9016256 359.511288,76.9181587 359.298198,76.740983 C357.511787,75.2556521 357.119139,74.8681516 356.234449,73.4143853 C354.6966,70.8873189 353.527791,66.9974765 352.735669,61.0709735 C352.150233,56.6908559 352.101964,53.6652143 352.316365,47.8856376 C352.381312,46.1348513 352.402208,45.4997273 352.41896,44.6047045 C352.502884,40.1209383 352.173854,36.71838 351.085311,32.7006666 C348.516844,23.2206932 346.755365,19.5889296 341.179045,14.488637 C341.107459,14.4231616 340.676469,14.0131002 340.534139,13.88382 C340.252204,13.6277337 339.986003,13.4098597 339.692672,13.2026056 C339.064489,12.7587596 338.354186,12.3973361 337.499623,12.118621 C336.193331,11.6925747 333.404268,11.3767715 332.598745,11.4686107 C329.64432,11.8054509 327.214952,12.2292518 325.124591,12.7385153 C323.123233,13.2260954 319.146599,14.5845479 319.078664,14.6027145 C316.931398,15.1769176 316.029307,15.3120457 314.812496,15.334123 C312.300538,15.5040594 309.104693,14.7951359 304.224605,13.2556663 C302.925098,12.9084111 302.380985,12.8151023 301.84576,12.8204604 C300.636304,13.1273778 300.512794,13.4594842 300.356538,13.9000757 C300.066297,14.7184656 299.666659,15.9002911 299.133285,17.5126193 C298.507701,19.403687 295.833059,27.6080506 295.539088,28.5050804 C295.417731,28.8752875 295.417731,28.8752875 295.296304,29.2452719 C290.988816,42.3658941 290.025612,45.0676917 289.117494,44.8202669 C288.015593,44.5200444 286.787103,40.9201897 284.850571,33.5227746 C284.553049,32.3862624 284.242897,31.1701115 283.912571,29.8481981 C283.320967,27.4806949 281.558399,20.2025882 281.434929,19.7021793 C281.062485,18.1927066 280.791422,17.1404305 280.586359,16.4192139 C280.523708,16.1988684 280.467698,16.0113778 280.418585,15.8575191 C279.78425,16.2987728 278.60693,17.1096081 277.648721,17.7240165 C276.638573,18.3717287 275.059425,19.1216489 273.611252,19.5694747 C271.076709,20.2309817 269.519206,20.3063875 268.035733,19.9007589 C267.497376,19.7535549 266.985036,19.5445315 266.503363,19.2689988 C265.222103,18.5360765 264.076398,17.3594054 262.602676,15.4549252 C262.313159,15.0807841 261.362315,13.819584 261.358866,13.815052 C260.894798,13.2053606 260.557972,12.7849451 260.243505,12.4318838 C256.878235,8.65358848 251.927008,6.13492307 249.509518,8.89881618 C248.651567,9.87970282 247.229212,12.0259753 244.7647,15.9914047 C244.296518,16.7447144 243.800208,17.5476882 243.112001,18.6642477 C243.252514,18.4362763 241.752543,20.870942 241.332687,21.5512925 C239.824611,23.9950339 238.664109,25.8584079 237.508104,27.6838291 C236.505738,29.2666403 235.563809,30.729251 234.65927,32.1041675 C230.32532,38.6918488 226.893614,43.1982932 224.23144,45.5398437 C223.60793,45.9429698 222.992641,46.1570814 221.930569,46.4540611 C221.466157,46.5839215 219.204747,47.1821119 218.560506,47.3590563 C215.061038,48.3202057 212.181891,49.3019961 209.278932,50.6409285 C202.699517,53.675553 196.405908,57.8907831 183.954322,67.1005855 C178.733672,70.9620341 173.815913,77.1458782 168.974073,85.3293175 C166.303033,89.8437783 164.403338,93.5323374 160.953026,100.604365 C158.71822,105.184996 157.762169,107.053437 157.069461,107.835384 C157.334947,108.035827 157.658966,108.273327 158.027926,108.536261 C159.228159,109.391592 160.688339,110.364893 162.37426,111.412373 C167.156503,114.383632 172.804402,117.374622 179.244087,120.172567 C197.619591,128.156444 218.669291,133.023416 242.017924,133.194673 C250.002023,133.253235 260.034605,133.456074 276.407883,133.866817 C279.521549,133.944927 282.811631,134.028992 287.369693,134.146543 C286.642673,134.127793 296.44,134.38085 299.251041,134.45307 C309.429262,134.714565 317.4511,134.914769 325.719584,135.11079 C378.776982,136.368616 426.592729,137.04287 479.503808,137.04287 C529.272846,137.04287 617.582345,128.699762 744.416851,112.013148 Z M289.48797,42.9099094 C289.813654,42.1374989 290.243226,41.0002517 290.771757,39.5177137 C291.676255,36.9805864 292.82039,33.5809614 294.346196,28.9333522 C294.467537,28.5636299 294.467537,28.5636299 294.588815,28.1936604 C294.88219,27.298452 297.557492,19.0920632 298.183886,17.1985484 C300.12469,11.3317221 299.938596,11.8564486 300.451178,11.8594353 C302.480042,11.8140605 303.103291,11.9209402 304.504062,12.2957646 C309.274538,13.8001516 312.39613,14.4926038 313.788255,14.3764117 C315.926811,14.3137408 316.748782,14.1906141 318.82033,13.6366588 C318.840344,13.6313068 322.83123,12.2679859 324.887889,11.7669329 C327.020099,11.2474739 329.490585,10.8165002 332.485467,10.4750474 C333.437779,10.3664724 336.370625,10.6985559 337.809697,11.1679086 C338.761282,11.4782674 339.561214,11.8852966 340.269722,12.3858965 C340.59934,12.6187896 340.89632,12.8618549 341.206498,13.1435944 C341.359847,13.2828844 341.79251,13.694537 341.853955,13.7507363 C347.600914,19.0071011 349.436854,22.7923871 352.050512,32.4391587 C353.166495,36.5581494 353.50435,40.0519692 353.418785,44.6234185 C353.401876,45.5268108 353.380864,46.1654878 353.315677,47.9227084 C353.103219,53.6499126 353.15073,56.6280455 353.726855,60.9384939 C354.50216,66.7391777 355.632876,70.5022461 357.088702,72.8945286 C357.897334,74.2233106 358.234449,74.5560072 359.937532,75.972054 C360.157252,76.1547421 361.311268,77.142976 361.578535,77.369534 C362.459882,78.1166377 363.292469,78.8032044 364.194511,79.5189437 C366.669006,81.4823704 369.258363,83.336624 372.052908,85.0813012 C373.570014,86.0284545 375.115398,86.9217302 376.689736,87.7548855 C379.84893,89.4267612 384.834847,91.2148133 391.163619,93.0551834 C394.826015,94.1201867 398.730796,95.1433453 402.778829,96.1269474 C404.223465,96.477969 405.587189,96.7999884 406.99168,97.1245879 C407.488306,97.2393658 409.085847,97.6051682 409.29254,97.6541125 C410.313634,97.8959044 411.313067,98.141662 412.578145,98.4595509 C412.95142,98.5533476 413.346825,98.6531309 414.086811,98.8399637 C414.682604,98.9902392 415.103883,99.0958913 415.511369,99.1969181 C417.694212,99.7381037 419.138278,100.055555 420.4451,100.262768 C423.547161,100.754638 425.645073,100.540418 427.457859,99.4517677 C429.566817,98.1852538 429.80446,98.0388052 430.443955,97.5851125 C431.677727,96.7098083 432.437006,95.8750272 433.201871,94.5034883 C433.607287,93.7765048 434.02295,92.8783305 434.503672,91.6952121 C434.879777,90.7695708 435.260659,89.4813268 435.686685,87.7386127 C436.105947,86.0235636 437.613869,79.010405 437.747503,78.4175525 C439.014875,72.7950027 440.132059,69.0750454 441.515224,66.4645058 C447.153649,55.8227347 454.858175,49.4829906 463.064016,45.4875992 C466.097429,44.0106425 469.751989,43.3676591 474.005188,43.3958804 C477.306758,43.4177874 480.63466,43.8112109 484.918919,44.5649475 C485.364871,44.6434044 488.968777,45.3041583 489.826078,45.4436328 C526.255112,51.3702765 577.184049,62.5517411 602.33662,70.2154496 C628.371192,78.1478943 746.141113,112.167936 747.456214,111.62929 L747.711153,112.587684 C619.13917,129.557672 529.742003,138.04287 479.503808,138.04287 C426.583959,138.04287 378.760606,137.368509 325.695883,136.110509 C317.426635,135.91447 309.404184,135.71425 299.225358,135.45274 C296.414236,135.380518 286.616829,135.127459 287.343912,135.14621 C282.786064,135.028665 279.49619,134.944606 276.382805,134.866503 C260.015204,134.455902 249.987022,134.253152 242.01059,134.194646 C218.520463,134.022351 197.339354,129.124996 178.845591,121.089737 C172.359901,118.271803 166.669035,115.258059 161.846516,112.261777 C160.142586,111.203107 158.66487,110.218117 157.447577,109.350629 C157.005321,109.035461 156.624946,108.755079 156.328409,108.528228 C155.85626,108.126253 155.85626,108.126253 155.809933,108.039102 C155.713452,107.81848 155.713452,107.81848 156.079645,107.377494 C156.522284,107.196432 157.481387,105.439496 160.054285,100.165885 C163.515943,93.0706019 165.424617,89.3646079 168.113431,84.8201072 C173.017337,76.5317669 178.010491,70.2531174 183.359662,66.2966087 C195.868901,57.0441624 202.195778,52.8066508 208.860104,49.7328627 C211.820635,48.3673769 214.74789,47.3691814 218.295658,46.3947661 C218.946895,46.2159002 221.205272,45.6185119 221.661276,45.4910028 C222.633346,45.2191895 223.197408,45.0229045 223.477728,44.8542078 C226.144406,42.5254915 229.53814,38.0689111 233.823849,31.5545556 C234.724991,30.1848049 235.663833,28.7269869 236.663265,27.1488082 C237.816824,25.3272505 238.975471,23.4668533 240.481687,21.0261257 C240.901313,20.346149 242.401045,17.9118709 242.260715,18.1395456 C242.949517,17.0220211 243.4464,16.2181204 243.915368,15.4635453 C246.41565,11.4405618 247.847214,9.28039379 248.756817,8.24045291 C251.779876,4.78421929 257.248973,7.56632228 260.990248,11.7667712 C261.325624,12.1433076 261.676206,12.5808932 262.154586,13.2093876 C262.161394,13.2183313 263.108598,14.4747047 263.393543,14.8429374 C264.791847,16.6499545 265.864276,17.7513693 266.999897,18.4009817 C267.406564,18.6336088 267.840666,18.8107128 268.299483,18.9361678 C269.594819,19.2903537 270.991418,19.2227378 272.364508,18.8902789 C274.674968,18.1938147 276.172548,17.48263 277.108948,16.882206 C278.464423,16.013069 280.324055,14.7027176 280.360434,14.6808462 C281.161765,14.9848819 281.205261,15.0824016 281.25312,15.2092278 C281.333055,15.4210595 281.430312,15.7309878 281.548234,16.1457245 C281.757365,16.8812504 282.030729,17.9424563 282.405812,19.4626256 C282.530129,19.9664667 284.292216,27.2425853 284.88274,29.6057675 C285.212215,30.924274 285.521463,32.1368837 285.817971,33.2695236 C287.28638,38.8787396 288.536135,42.6991306 289.159437,43.6354979 C289.250984,43.4538127 289.361133,43.2107238 289.48797,42.9099094 Z"/>
    <path fill="#253F5D" d="M-11,68.3299568 C13.6038205,83.7247602 41.9336025,97.3106848 53.9964487,96.0877307 C77.1301658,93.7423909 106.283187,69.2257528 138.496449,60.8299568 C171.739747,52.1657007 193.996449,58.3299568 202.996449,68.3299568 C226.418462,94.3544159 223.496449,110.598708 244.623842,110.598708 C274.691699,110.598708 290.274532,84.1123842 338.537839,108.033188 C370.834637,124.040492 437.728382,116.321866 451.877455,114.996662 C491.6402,111.272478 500.611396,81.1349281 553.983966,81.9688746 C592.369211,82.568644 616.055391,117.794457 627.659316,113.079823 C715.890989,77.2316033 806.557569,71.5675726 899.659056,96.0877307 L899.659056,161.329957 L-11,161.329957 L-11,68.3299568 Z"/>
    <path fill="#000" d="M230.159295 60.948605C230.989777 60.0416452 233.125194 59.5355988 233.716096 58.9572754 234.58023 58.1115357 234.538154 58.183519 234.617122 58.0426253 234.68696 57.918021 234.894302 57.6072906 235.284542 56.6331928 235.67218 55.6655884 235.577591 54.0782388 234.535748 50.7231048 235.867344 53.1072177 236.266922 55.1318355 235.734483 56.7969582 234.935825 59.2946421 232.610312 61.5783403 230.866322 62.3816988 230.767069 62.4274193 230.531393 61.9497214 230.159295 60.948605zM232.5 78.691626C233.651366 78.2608772 236.383157 78.9384376 237.171977 78.691626 238.325547 78.330689 238.255402 78.3757007 238.389679 78.28606 238.50843 78.2067831 238.83413 78.0241564 239.623744 77.3336958 240.408093 76.6478379 241.044005 75.1909767 241.638052 71.7293487 241.742699 74.4576268 241.180114 76.442471 239.950297 77.6838811 238.105571 79.5459963 234.412385 80.5 232.5 80.5 231.920551 80.5 232.377296 79.7523221 232.5 78.691626z"/>
    <path fill="#000" d="M233.061375,76.6516284 C234.21274,76.2208796 236.344779,76.7397952 237.1336,76.4929836 C238.28717,76.1320466 238.217025,76.1770583 238.351301,76.0874176 C238.470053,76.0081407 238.795753,75.825514 239.585366,75.1350534 C240.369716,74.4491955 241.005628,72.9923343 241.599675,69.5307063 C241.704321,72.2589844 241.141736,74.2438286 239.911919,75.4852387 C238.067194,77.3473538 234.959278,78.3255363 233.041071,78.24919 C232.931903,78.244845 232.938671,77.7123244 233.061375,76.6516284 Z"/>
    <path fill="#000" d="M233.022997 74.452986C234.174363 74.0222372 236.306402 74.5411528 237.095222 74.2943412 238.248793 73.9334042 238.178648 73.9784159 238.312924 73.8887752 238.431675 73.8094983 238.757376 73.6268716 239.546989 72.936411 240.331338 72.2505531 240.96725 70.7936919 241.561297 67.3320639 241.665944 70.060342 241.103359 72.0451861 239.873542 73.2865963 238.028817 75.1487114 234.9209 76.1268939 233.002694 76.0505476 232.893525 76.0462026 232.900293 75.513682 233.022997 74.452986zM231.9349 65.7118484C233.129945 65.6324499 233.596457 64.8051543 234.187359 64.2268309 235.051493 63.3810912 235.009416 63.4530745 235.088384 63.3121809 235.158222 63.1875765 235.365564 62.8768462 235.755804 61.9027483 236.143442 60.935144 236.048853 59.3477943 235.00701 55.9926603 236.338606 58.3767733 236.738184 60.4013911 236.205746 62.0665137 235.407088 64.5641976 232.01139 70.0939224 231.94637 66.3689381L231.9349 65.7118484z"/>
    <path fill="#000" d="M231.152663,63.130578 C231.983145,62.2236182 234.118562,61.7175718 234.709464,61.1392483 C235.573598,60.2935087 235.531522,60.365492 235.610489,60.2245983 C235.680327,60.099994 235.88767,59.7892636 236.277909,58.8151658 C236.665548,57.8475614 236.570959,56.2602118 235.529116,52.9050778 C236.860711,55.2891907 237.26029,57.3138085 236.727851,58.9789312 C235.929193,61.4766151 232.882098,63.6301803 231.580763,64.0343277 C231.486069,64.0637364 231.343368,63.7624865 231.152663,63.130578 Z"/>
    <path fill="#000" d="M232.328739,67.5086741 C233.159221,66.6017143 235.294638,66.0956679 235.88554,65.5173444 C236.749674,64.6716048 236.707598,64.7435881 236.786566,64.6026944 C236.856404,64.4780901 237.063746,64.1673597 237.453986,63.1932619 C237.841624,62.2256575 237.747035,60.6383079 236.705192,57.2831738 C238.036788,59.6672868 238.436366,61.6919046 237.903927,63.3570273 C237.105269,65.8547112 234.058174,68.0082764 232.756839,68.4124238 C232.662145,68.4418325 232.519444,68.1405826 232.328739,67.5086741 Z"/>
    <path fill="#000" d="M232.347927,68.6079953 C233.17841,67.7010355 235.313827,67.1949891 235.904729,66.6166657 C236.768863,65.770926 236.726786,65.8429093 236.805754,65.7020156 C236.875592,65.5774113 237.082935,65.2666809 237.473174,64.2925831 C237.860812,63.3249787 237.766223,61.7376291 236.724381,58.3824951 C238.055976,60.766608 238.455555,62.7912258 237.923116,64.4563485 C237.124458,66.9540324 234.077363,69.1075976 232.776028,69.511745 C232.681333,69.5411537 232.538633,69.2399038 232.347927,68.6079953 Z"/>
    <path fill="#000" d="M233.466437,69.6881278 C234.29692,68.781168 236.432337,68.2751216 237.023239,67.6967981 C237.887373,66.8510584 237.845296,66.9230418 237.924264,66.7821481 C237.994102,66.6575438 238.201445,66.3468134 238.591684,65.3727156 C238.979322,64.4051112 238.884733,62.8177616 237.842891,59.4626275 C239.174486,61.8467405 239.574065,63.8713583 239.041626,65.5364809 C238.242968,68.0341649 235.195873,70.1877301 233.894538,70.5918775 C233.799843,70.6212862 233.657143,70.3200363 233.466437,69.6881278 Z"/>
    <path fill="#000" d="M233.504815,71.8867702 C234.335297,70.9798104 236.470714,70.473764 237.061616,69.8954405 C237.92575,69.0497009 237.883674,69.1216842 237.962642,68.9807905 C238.03248,68.8561862 238.239822,68.5454558 238.630062,67.571358 C239.0177,66.6037536 238.923111,65.016404 237.881268,61.6612699 C239.212864,64.0453829 239.612442,66.0700007 239.080003,67.7351234 C238.281345,70.2328073 235.234251,72.3863725 233.932915,72.7905199 C233.838221,72.8199286 233.695521,72.5186787 233.504815,71.8867702 Z"/>
    <path fill="#000" d="M233.524004,72.9860914 C234.354486,72.0791316 236.489903,71.5730852 237.080805,70.9947617 C237.944939,70.1490221 237.902863,70.2210054 237.98183,70.0801117 C238.051668,69.9555074 238.259011,69.644777 238.64925,68.6706792 C239.036888,67.7030748 238.9423,66.1157252 237.900457,62.7605912 C239.232052,65.1447041 239.631631,67.1693219 239.099192,68.8344446 C238.300534,71.3321285 235.253439,73.4856937 233.952104,73.8898411 C233.857409,73.9192498 233.714709,73.6179999 233.524004,72.9860914 Z"/>
    <path fill="#000" d="M233.788342 73.1334368C234.907183 72.6230712 235.927545 73.3841241 236.697442 73.0826582 237.823339 72.6417949 237.756481 72.6916152 237.884223 72.5927771 237.997196 72.5053661 238.309468 72.3003525 239.049295 71.5561694 239.784191 70.8169472 240.317349 69.3188253 240.669283 65.8233277 240.963476 68.5382111 240.540208 70.5580094 239.399481 71.8827225 237.688389 73.8697921 235.161979 74.2918285 233.80618 74.155376 233.707522 74.1454467 233.701576 73.8048003 233.788342 73.1334368zM231.5 65C232.330482 64.0930402 233.901817 63.9206674 234.492719 63.3423439 235.356853 62.4966042 235.314777 62.5685876 235.393744 62.4276939 235.463583 62.3030896 235.670925 61.9923592 236.061165 61.0182614 236.448803 60.050657 236.354214 58.4633074 235.312371 55.1081733 236.643966 57.4922863 237.043545 59.5169041 236.511106 61.1820267 235.712448 63.6797107 234.013982 65.4536909 232.25173 65.4844511 231.722319 65.4936921 231.847797 65.1097593 231.5 65zM227.997355 88.5682026C229.555486 88.2722266 232.406987 89.5478767 233.473251 89.4120075 235.032554 89.2133124 234.937146 89.2573435 235.119871 89.1682406 235.28147 89.0894392 235.723795 88.9215248 236.802502 88.1713089 237.874018 87.4260941 238.765852 85.5740978 239.652847 80.9341147 239.723491 84.7407247 238.916645 87.3432471 237.232309 88.7416818 234.705805 90.839334 233.373175 90.0510814 229.461826 89.8702071 226.854259 89.7496242 226.366102 89.3156227 227.997355 88.5682026z"/>
    <path fill="#000" d="M229.058299,86.3503715 C230.61643,86.0543955 233.467931,87.3300456 234.534194,87.1941763 C236.093498,86.9954812 235.99809,87.0395123 236.180815,86.9504094 C236.342414,86.8716081 236.784739,86.7036937 237.863446,85.9534778 C238.934962,85.2082629 239.826796,83.3562667 240.713791,78.7162836 C240.784435,82.5228936 239.977589,85.125416 238.293253,86.5238507 C235.766749,88.6215028 234.434119,87.8332502 230.52277,87.6523759 C227.915203,87.5317931 227.427046,87.0977916 229.058299,86.3503715 Z"/>
    <path fill="#000" d="M231.007101,83.4316509 C232.435536,82.7424861 235.520037,83.2366466 236.514803,82.8294376 C237.969548,82.2339356 237.888788,82.3011597 238.042225,82.1678002 C238.177922,82.049859 238.561716,81.773184 239.409497,80.7693412 C240.251626,79.7721902 240.63374,77.7524756 240.289595,73.0410249 C241.343055,76.6996438 241.237284,79.4223145 239.972282,81.2090369 C238.074779,83.8891205 236.583542,83.472637 232.758655,84.3102576 C230.20873,84.8686714 229.624879,84.5758025 231.007101,83.4316509 Z"/>
    <path fill="#000" d="M232.068045,81.2138198 C233.49648,80.5246549 236.580981,81.0188155 237.575747,80.6116065 C239.030492,80.0161044 238.949731,80.0833286 239.103168,79.9499691 C239.238866,79.8320279 239.62266,79.5553528 240.470441,78.55151 C241.31257,77.554359 241.694683,75.5346444 241.350538,70.8231938 C242.403998,74.4818127 242.298227,77.2044834 241.033226,78.9912058 C239.135723,81.6712894 237.644486,81.2548059 233.819599,82.0924265 C231.269674,82.6508403 230.685823,82.3579713 232.068045,81.2138198 Z"/>
    <path fill="#000" d="M228,88 C229.428435,87.3108352 233.39815,87.6723089 234.392916,87.2650999 C235.847661,86.6695978 235.7669,86.736822 235.920337,86.6034625 C236.056035,86.4855213 236.439829,86.2088462 237.287609,85.2050034 C238.129738,84.2078524 238.511852,82.1881378 238.167707,77.4766872 C239.221167,81.1353061 239.115396,83.8579768 237.850394,85.6446992 C235.952891,88.3247828 234.461655,87.9082993 230.636768,88.7459199 C228.086843,89.3043337 226.617778,89.1441516 228,88 Z"/>
    <path fill="#000" d="M229.946158,85.649482 C231.374592,84.9603172 234.459093,85.4544778 235.453859,85.0472688 C236.908604,84.4517667 236.827844,84.5189909 236.981281,84.3856314 C237.116979,84.2676902 237.500772,83.9910151 238.348553,82.9871723 C239.190682,81.9900213 239.572796,79.9703067 239.228651,75.2588561 C240.282111,78.917475 240.17634,81.6401456 238.911338,83.426868 C237.013835,86.1069517 235.522599,85.6904682 231.697711,86.5280888 C229.147786,87.0865025 228.563935,86.7936336 229.946158,85.649482 Z"/>
    <path fill="#000" fill-rule="nonzero" d="M229.23307,60.6987935 C235.069157,72.5829883 234.437744,77.8233068 226.299038,89.3743696 L227.116505,89.9503447 C235.457324,78.1124278 236.135327,72.4854421 230.130677,60.257997 L229.23307,60.6987935 Z"/>
    <path fill="#F54623" d="M284.847365,40.5020242 C283.011852,38.6368467 279.899666,35.0045809 279.349922,33.9050923 C278.800177,32.8056036 278.789505,32.6371436 278.250433,31.1563706 C277.383631,28.7753597 277.083709,25.5442324 277.150944,23.45995 C277.275398,19.6018841 279.358665,15.7195203 280.988482,14.0702873 C281.996932,13.0498236 284.291583,13.4028245 284.847365,13.520543 C287.442859,14.0702873 288.178091,16.0004171 288.178091,16.8972319 C288.178091,17.7940466 287.03567,21.0824338 287.03567,24.3909786 C287.03567,26.1693765 286.640168,29.5057935 287.596086,33.3553479 C287.749207,33.971974 288.298951,35.0714626 289.245319,36.6538139 C289.579915,35.9214766 289.763163,35.3717322 289.795064,35.0045809 C289.888162,33.9331088 289.218959,31.7837224 289.245319,30.6066263 C289.246035,30.5746616 289.063094,28.4288136 289.245319,26.758416 C289.854887,21.1707139 291.304508,18.360977 292.543785,15.7635293 C293.783063,13.1660816 296.954609,10.5964203 299.130045,11.3215657 C300.779278,11.87131 300.779278,12.7365857 300.779278,13.520543 C300.779278,15.3586235 297.480812,22.9906477 296.381323,27.8138956 C295.281835,32.6371436 295.441102,32.674271 294.73209,35.5103163 C294.023079,38.3463615 293.341535,40.2226219 293.09353,41.6015129 C292.894583,42.7076397 293.033188,44.0843081 292.543785,44.8999789 C291.444297,46.73246 290.72284,47.4654524 290.379416,47.0989562 C289.67883,45.9495086 288.945055,44.8500199 288.178091,43.8004902 C287.027645,42.2261956 286.682878,42.3672018 284.847365,40.5020242 Z"/>
  </g>
</svg>
