<?xml version="1.0" encoding="UTF-8"?>
<svg width="887px" height="150px" viewBox="0 0 887 150" version="1.1" xmlns="http://www.w3.org/2000/svg" xmlns:xlink="http://www.w3.org/1999/xlink">
    <!-- Generator: Sketch 45.2 (43514) - http://www.bohemiancoding.com/sketch -->
    <title>FloatingLadySVG</title>
    <desc>Created with Sketch.</desc>
    <defs></defs>
    <g id="Page-1" stroke="none" stroke-width="1" fill="none" fill-rule="evenodd">
        <g id="FloatingLadySVG">
            <g id="FloatingLadyGroup" transform="translate(-2.000000, 2.000000)">
                <path d="M158.268946,105.840274 C160.687886,104.850801 170.452991,75.9442209 185.656992,64.6985971 C194.497995,58.1593582 203.227979,51.8036494 211.069518,48.1868956 C218.229295,44.8845908 224.859307,44.0808332 225.901219,43.1644057 C233.695351,36.3089726 247.432218,10.8008945 251.133168,6.56963455 C254.55321,2.65953274 260.94624,8.22365045 262.616877,10.0993275 C264.287514,11.9750045 266.280387,15.4213587 268.75163,16.8349902 C271.621298,18.4765342 275.081216,17.2100198 275.463536,17.0917928 C277.080447,16.5917875 278.617962,15.7909863 279.378835,15.3031113 C281.448574,13.9759843 282.171897,13.3776017 282.618062,13.1093643 C283.170725,12.7770994 289.031504,41.7336947 291.248932,42.3378521 C292.171311,42.5891624 302.019251,10.3569271 302.448264,10.3594268 C304.075624,10.3689092 303.907532,10.1189525 306.353686,10.7726156 C311.189615,12.2976437 314.348334,12.9983316 315.829842,12.8746792 C317.250282,12.7561237 317.532634,13.0333941 320.949497,12.1196866 C323.21304,11.5143896 325.956738,9.95066473 334.542106,8.97182907 C335.217395,8.89483805 338.064653,9.12468493 339.65466,9.64326481 C341.829374,10.3525465 342.830546,11.4922901 343.5165,12.1196866 C350.169073,18.2043572 351.674602,23.5818813 353.567912,30.5699126 C356.431597,41.1395095 353.634323,47.0567498 355.231262,59.0047337 C356.828201,70.9527176 359.790618,72.8372347 361.617865,74.3565185 C363.445112,75.8758024 369.59645,81.5083303 378.455862,86.1968164 C387.315274,90.8853025 408.68354,95.5501365 411.177327,96.1406575 C420.411038,98.3271715 425.602886,100.350068 429.715277,97.880412 C433.827668,95.4107559 434.936583,94.880284 436.966895,89.8834275 C438.997206,84.886571 440.552101,71.1249636 443.95704,64.6985971 C451.047286,51.3167068 461.94598,45.5618765 465.282898,43.9371443 C473.603018,39.8861107 485.640693,42.9439055 491.745789,43.9371443 C527.545425,49.7613912 578.655431,60.9133709 604.19089,68.6937411 C611.847761,71.0267046 747.69951,110.889124 749.645727,110.091984 C621.09443,127.059241 531.71379,135.54287 481.503808,135.54287 C363.549648,135.54287 280.980267,131.965797 244.014257,131.69466 C190.493919,131.3021 158.197918,105.869328 158.268946,105.840274 Z" id="Body" stroke-opacity="0.548375226" stroke="#000000" transform="translate(453.957278, 70.375338) rotate(-1.000000) translate(-453.957278, -70.375338) "></path>
                <path d="M0.996448696,73.8299568 C25.6002692,89.2247602 43.9336025,96.3106848 55.9964487,95.0877307 C79.1301658,92.7423909 108.283187,68.2257528 140.496449,59.8299568 C173.739747,51.1657007 195.996449,57.3299568 204.996449,67.3299568 C228.418462,93.3544159 225.496449,109.598708 246.623842,109.598708 C276.691699,109.598708 292.274532,83.1123842 340.537839,107.033188 C372.834637,123.040492 439.728382,115.321866 453.877455,113.996662 C493.6402,110.272478 502.611396,80.1349281 555.983966,80.9688746 C594.369211,81.568644 618.055391,116.794457 629.659316,112.079823 C717.890989,76.2316033 808.557569,70.5675726 901.659056,95.0877307 L901.659056,160.329957 L0.996448696,160.329957 L0.996448696,73.8299568 Z" id="Water" fill="#253F5D"></path>
                <g id="Eyelashes" transform="translate(238.163437, 70.477545) rotate(-1.000000) translate(-238.163437, -70.477545) translate(228.663437, 48.477545)">
                    <path d="M5.36117095,1.39425328 C5.83137066,2.5305584 7.66492836,3.73644221 8.0223961,4.48198877 C8.54515661,5.57227542 8.5302373,5.49024217 8.55625431,5.6496475 C8.57926337,5.79062327 8.66782557,6.15352961 8.70136965,7.20235196 C8.73469011,8.24418265 8.10290003,9.70345205 5.97636467,12.4999156 C8.04306988,10.7150147 9.11101087,8.94916016 9.18018763,7.20235196 C9.28395276,4.58213966 7.87975618,1.64079303 6.51570649,0.289403341 C6.43807597,0.212493321 6.05323079,0.580776633 5.36117095,1.39425328 Z" id="Path-2-Copy-12" fill="#000000" transform="translate(7.273389, 6.389677) scale(1, -1) rotate(-21.000000) translate(-7.273389, -6.389677) "></path>
                    <path d="M9.40362423,21.4048466 C9.87382394,22.540672 11.7073816,23.7460468 12.0648494,24.4912787 C12.5876099,25.5811051 12.5726906,25.4991064 12.5987076,25.6584445 C12.6217167,25.7993607 12.7102789,26.1621139 12.7438229,27.2104935 C12.7771434,28.2518844 12.1453533,29.7105378 10.0188179,32.5058209 C12.0855232,30.7216735 13.1534641,28.9565643 13.2226409,27.2104935 C13.326406,24.5913873 11.9222095,21.6512823 10.5581598,20.300463 C10.4805292,20.2235855 10.0956841,20.5917133 9.40362423,21.4048466 Z" id="Path-2-Copy-15" fill="#000000" transform="translate(11.315843, 26.398162) scale(1, -1) rotate(-48.000000) translate(-11.315843, -26.398162) "></path>
                    <path d="M9.40362423,19.2058692 C9.87382394,20.3416947 11.7073816,21.5470695 12.0648494,22.2923013 C12.5876099,23.3821277 12.5726906,23.3001291 12.5987076,23.4594672 C12.6217167,23.6003834 12.7102789,23.9631366 12.7438229,25.0115162 C12.7771434,26.0529071 12.1453533,27.5115605 10.0188179,30.3068435 C12.0855232,28.5226961 13.1534641,26.757587 13.2226409,25.0115162 C13.326406,22.3924099 11.9222095,19.4523049 10.5581598,18.1014857 C10.4805292,18.0246081 10.0956841,18.392736 9.40362423,19.2058692 Z" id="Path-2-Copy-17" fill="#000000" transform="translate(11.315843, 24.199184) scale(1, -1) rotate(-48.000000) translate(-11.315843, -24.199184) "></path>
                    <path d="M9.40362423,17.0068919 C9.87382394,18.1427174 11.7073816,19.3480922 12.0648494,20.093324 C12.5876099,21.1831504 12.5726906,21.1011518 12.5987076,21.2604898 C12.6217167,21.4014061 12.7102789,21.7641592 12.7438229,22.8125389 C12.7771434,23.8539298 12.1453533,25.3125832 10.0188179,28.1078662 C12.0855232,26.3237188 13.1534641,24.5586097 13.2226409,22.8125389 C13.326406,20.1934326 11.9222095,17.2533276 10.5581598,15.9025084 C10.4805292,15.8256308 10.0956841,16.1937587 9.40362423,17.0068919 Z" id="Path-2-Copy-24" fill="#000000" transform="translate(11.315843, 22.000207) scale(1, -1) rotate(-48.000000) translate(-11.315843, -22.000207) "></path>
                    <path d="M6.84542963,7.3097374 C7.94124852,7.79307706 8.09667449,8.73003702 8.45414223,9.47558359 C8.97690274,10.5658702 8.96198343,10.483837 8.98800044,10.6432423 C9.01100951,10.7842181 9.09957171,11.1471244 9.13311578,12.1959468 C9.16643624,13.2377775 8.53464616,14.6970469 6.4081108,17.4935104 C8.47481602,15.7086095 9.542757,13.942755 9.61193376,12.1959468 C9.71569889,9.57573448 8.41606372,3.21809571 7.08094537,6.69619792 C7.01218713,6.87531927 6.93368188,7.07983243 6.84542963,7.3097374 Z" id="Path-2-Copy-14" fill="#000000" transform="translate(8.012935, 11.586878) scale(1, -1) rotate(-21.000000) translate(-8.012935, -11.586878) "></path>
                    <path d="M6.38854163,3.20348704 C6.85874135,4.33979216 8.69229904,5.54567597 9.04976678,6.29122253 C9.57252729,7.38150918 9.55760798,7.29947593 9.58362499,7.45888126 C9.60663406,7.59985703 9.69519626,7.96276337 9.72874033,9.01158572 C9.76206079,10.0534164 9.13027071,11.5126858 7.00373535,14.3091493 C9.07044056,12.5242485 10.1383816,10.7583939 10.2075583,9.01158572 C10.3113234,6.39137342 8.18455363,3.32551628 7.09992518,2.50065914 C7.02099965,2.44063648 6.7838718,2.67491244 6.38854163,3.20348704 Z" id="Path-2-Copy-13" fill="#000000" transform="translate(8.299881, 8.400314) scale(1, -1) rotate(-21.000000) translate(-8.299881, -8.400314) "></path>
                    <path d="M7.48803029,7.60144169 C7.95823001,8.73774681 9.7917877,9.94363062 10.1492554,10.6891772 C10.672016,11.7794638 10.6570966,11.6974306 10.6831137,11.8568359 C10.7061227,11.9978117 10.7946849,12.360718 10.828229,13.4095404 C10.8615495,14.4513711 10.2297594,15.9106405 8.10322401,18.707104 C10.1699292,16.9222031 11.2378702,15.1563486 11.307047,13.4095404 C11.4108121,10.7893281 9.28404229,7.72347093 8.19941384,6.89861379 C8.12048831,6.83859113 7.88336046,7.0728671 7.48803029,7.60144169 Z" id="Path-2-Copy-18" fill="#000000" transform="translate(9.399370, 12.798268) scale(1, -1) rotate(-21.000000) translate(-9.399370, -12.798268) "></path>
                    <path d="M7.48803029,8.70093035 C7.95823001,9.83723547 9.7917877,11.0431193 10.1492554,11.7886658 C10.672016,12.8789525 10.6570966,12.7969192 10.6831137,12.9563246 C10.7061227,13.0973003 10.7946849,13.4602067 10.828229,14.509029 C10.8615495,15.5508597 10.2297594,17.0101291 8.10322401,19.8065926 C10.1699292,18.0216918 11.2378702,16.2558372 11.307047,14.509029 C11.4108121,11.8888167 9.28404229,8.82295959 8.19941384,7.99810246 C8.12048831,7.93807979 7.88336046,8.17235576 7.48803029,8.70093035 Z" id="Path-2-Copy-20" fill="#000000" transform="translate(9.399370, 13.897757) scale(1, -1) rotate(-21.000000) translate(-9.399370, -13.897757) "></path>
                    <path d="M8.58751896,9.80041901 C9.05771867,10.9367241 10.8912764,12.1426079 11.2487441,12.8881545 C11.7715046,13.9784412 11.7565853,13.8964079 11.7826023,14.0558132 C11.8056114,14.196789 11.8941736,14.5596954 11.9277177,15.6085177 C11.9610381,16.6503484 11.329248,18.1096178 9.20271267,20.9060813 C11.2694179,19.1211804 12.3373589,17.3553259 12.4065356,15.6085177 C12.5103008,12.9883054 10.383531,9.92244825 9.2989025,9.09759112 C9.21997697,9.03756846 8.98284912,9.27184442 8.58751896,9.80041901 Z" id="Path-2-Copy-19" fill="#000000" transform="translate(10.498859, 14.997246) scale(1, -1) rotate(-21.000000) translate(-10.498859, -14.997246) "></path>
                    <path d="M8.58751896,11.9993963 C9.05771867,13.1357015 10.8912764,14.3415853 11.2487441,15.0871318 C11.7715046,16.1774185 11.7565853,16.0953852 11.7826023,16.2547906 C11.8056114,16.3957663 11.8941736,16.7586727 11.9277177,17.807495 C11.9610381,18.8493257 11.329248,20.3085951 9.20271267,23.1050586 C11.2694179,21.3201578 12.3373589,19.5543032 12.4065356,17.807495 C12.5103008,15.1872827 10.383531,12.1214256 9.2989025,11.2965684 C9.21997697,11.2365458 8.98284912,11.4708217 8.58751896,11.9993963 Z" id="Path-2-Copy-21" fill="#000000" transform="translate(10.498859, 17.196223) scale(1, -1) rotate(-21.000000) translate(-10.498859, -17.196223) "></path>
                    <path d="M8.58751896,13.098885 C9.05771867,14.2351901 10.8912764,15.4410739 11.2487441,16.1866205 C11.7715046,17.2769071 11.7565853,17.1948739 11.7826023,17.3542792 C11.8056114,17.495255 11.8941736,17.8581613 11.9277177,18.9069837 C11.9610381,19.9488144 11.329248,21.4080838 9.20271267,24.2045473 C11.2694179,22.4196464 12.3373589,20.6537919 12.4065356,18.9069837 C12.5103008,16.2867714 10.383531,13.2209142 9.2989025,12.3960571 C9.21997697,12.3360344 8.98284912,12.5703104 8.58751896,13.098885 Z" id="Path-2-Copy-22" fill="#000000" transform="translate(10.498859, 18.295712) scale(1, -1) rotate(-21.000000) translate(-10.498859, -18.295712) "></path>
                    <path d="M9.88536897,15.7545165 C10.3555687,16.8908216 11.6208514,17.0301084 11.9783191,17.775655 C12.5010796,18.8659416 12.4861603,18.7839084 12.5121773,18.9433137 C12.5351864,19.0842895 12.6237486,19.4471958 12.6572927,20.4960182 C12.6906131,21.5378489 12.0588231,22.9971183 9.93228769,25.7935818 C11.9989929,24.0086809 13.0669339,22.2428264 13.1361106,20.4960182 C13.2398758,17.8758059 11.6800042,15.8441401 10.5953758,15.0192829 C10.5164503,14.9592603 10.2797813,15.2043381 9.88536897,15.7545165 Z" id="Path-2-Copy-23" fill="#000000" transform="translate(11.513200, 20.402004) scale(1, -1) rotate(-44.000000) translate(-11.513200, -20.402004) "></path>
                    <path d="M6.26083571,4.71477684 C6.73103542,5.85108196 8.56459312,7.05696577 8.92206086,7.80251234 C9.44482137,8.89279898 9.42990206,8.81076573 9.45591907,8.97017106 C9.47892813,9.11114683 9.56749033,9.47405318 9.60103441,10.5228755 C9.63435487,11.5647062 9.00256479,13.0239756 6.87602943,15.8204391 C8.94273464,14.0355383 10.0106756,12.2696837 10.0798524,10.5228755 C10.1836175,7.90266323 9.19431797,5.65475727 7.548864,5.02312668 C7.05454105,4.83337387 6.62519828,4.73059059 6.26083571,4.71477684 Z" id="Path-2-Copy-16" fill="#000000" transform="translate(8.174062, 10.267608) scale(1, -1) rotate(-21.000000) translate(-8.174062, -10.267608) "></path>
                    <path d="M5.02873972,30.1454922 C5.73006937,31.5679937 8.46492508,33.0775983 8.99810857,34.0109226 C9.77783564,35.3758151 9.75558264,35.2731205 9.79438849,35.4726746 C9.82870783,35.6491573 9.96080339,36.1034673 10.0108363,37.4164521 C10.0605357,38.7206843 9.11818477,40.5474938 5.94633618,44.0482907 C9.0289447,41.8138344 10.6218395,39.6032215 10.7250206,37.4164521 C10.8797922,34.136298 9.44826892,33.5463947 6.94990727,30.5315048 C5.28433283,28.5215782 4.64394365,28.3929073 5.02873972,30.1454922 Z" id="Path-2-Copy-2" fill="#000000" transform="translate(7.828412, 36.484623) scale(1, -1) rotate(-54.000000) translate(-7.828412, -36.484623) "></path>
                    <path d="M6.12822839,27.9465148 C6.82955804,29.3690163 9.56441374,30.878621 10.0975972,31.8119452 C10.8773243,33.1768378 10.8550713,33.0741432 10.8938772,33.2736972 C10.9281965,33.45018 11.0602921,33.90449 11.1103249,35.2174748 C11.1600243,36.521707 10.2176734,38.3485164 7.04582485,41.8493134 C10.1284334,39.6148571 11.7213282,37.4042442 11.8245092,35.2174748 C11.9792808,31.9373207 10.5477576,31.3474173 8.04939593,28.3325274 C6.38382149,26.3226009 5.74343231,26.19393 6.12822839,27.9465148 Z" id="Path-2-Copy-8" fill="#000000" transform="translate(8.927901, 34.285646) scale(1, -1) rotate(-54.000000) translate(-8.927901, -34.285646) "></path>
                    <path d="M7.51870043,23.3587761 C8.22003008,24.7812776 10.9548858,26.2908822 11.4880693,27.2242065 C12.2677963,28.589099 12.2455433,28.4864044 12.2843492,28.6859585 C12.3186685,28.8624412 12.4507641,29.3167512 12.500797,30.629736 C12.5504964,31.9339682 11.6081455,33.7607777 8.43629689,37.2615746 C11.5189054,35.0271183 13.1118002,32.8165054 13.2149813,30.629736 C13.3697529,27.3495819 11.9382296,26.7596786 9.43986797,23.7447887 C7.77429353,21.7348621 7.13390435,21.6061912 7.51870043,23.3587761 Z" id="Path-2-Copy-5" fill="#000000" transform="translate(10.318373, 29.697907) scale(1, -1) rotate(-39.000000) translate(-10.318373, -29.697907) "></path>
                    <path d="M8.61818909,21.1597987 C9.31951874,22.5823002 12.0543744,24.0919049 12.5875579,25.0252291 C13.367285,26.3901217 13.345032,26.2874271 13.3838379,26.4869811 C13.4181572,26.6634639 13.5502528,27.1177739 13.6002857,28.4307587 C13.649985,29.7349909 12.7076341,31.5618003 9.53578555,35.0625973 C12.6183941,32.828141 14.2112889,30.6175281 14.3144699,28.4307587 C14.4692415,25.1506046 13.0377183,24.5607012 10.5393566,21.5458113 C8.87378219,19.5358848 8.23339301,19.4072139 8.61818909,21.1597987 Z" id="Path-2-Copy-6" fill="#000000" transform="translate(11.417861, 27.498930) scale(1, -1) rotate(-39.000000) translate(-11.417861, -27.498930) "></path>
                    <path d="M5.3197231,27.7567307 C6.02105275,29.1792322 8.75590846,30.6888369 9.28909195,31.6221611 C10.068819,32.9870537 10.046566,32.884359 10.0853719,33.0839131 C10.1196912,33.2603959 10.2517868,33.7147059 10.3018197,35.0276907 C10.351519,36.3319229 9.40916815,38.1587323 6.23731956,41.6595293 C9.31992808,39.425073 10.9128229,37.2144601 11.0160039,35.0276907 C11.1707756,31.7475366 9.7392523,31.1576332 7.24089064,28.1427433 C5.57531621,26.1328167 4.93492702,26.0041459 5.3197231,27.7567307 Z" id="Path-2-Copy-3" fill="#000000" transform="translate(8.119395, 34.095862) scale(1, -1) rotate(-39.000000) translate(-8.119395, -34.095862) "></path>
                    <path d="M6.41921176,25.5577534 C7.12054141,26.9802549 9.85539712,28.4898596 10.3885806,29.4231838 C11.1683077,30.7880763 11.1460547,30.6853817 11.1848605,30.8849358 C11.2191799,31.0614185 11.3512754,31.5157286 11.4013083,32.8287134 C11.4510077,34.1329455 10.5086568,35.959755 7.33680822,39.4605519 C10.4194167,37.2260956 12.0123115,35.0154828 12.1154926,32.8287134 C12.2702642,29.5485593 10.838741,28.9586559 8.34037931,25.943766 C6.67480487,23.9338394 6.03441569,23.8051685 6.41921176,25.5577534 Z" id="Path-2-Copy-10" fill="#000000" transform="translate(9.218884, 31.896885) scale(1, -1) rotate(-39.000000) translate(-9.218884, -31.896885) "></path>
                    <path d="M2.97410186,9.89539797 C9.11220374,22.3945946 7.91266982,27.8491044 0,39.0793598" id="Path-3" stroke="#000000"></path>
                </g>
                <path d="M278.652391,26.0806443 C280.517569,24.2451315 284.149835,21.1329453 285.249323,20.583201 C286.348812,20.0334567 286.517272,20.0227843 287.998045,19.4837123 C290.379056,18.6169108 293.610183,18.3169888 295.694465,18.3842237 C299.552531,18.5086774 303.434895,20.5919444 305.084128,22.2217617 C306.104592,23.2302119 305.751591,25.524863 305.633872,26.0806443 C305.084128,28.6761388 303.153998,29.411371 302.257184,29.411371 C301.360369,29.411371 298.071982,28.2689493 294.763437,28.2689493 C292.985039,28.2689493 289.648622,27.8734476 285.799067,28.829366 C285.182441,28.9824861 284.082953,29.5322304 282.500602,30.478599 C283.232939,30.813194 283.782683,30.9964421 284.149835,31.0283433 C285.221307,31.1214418 287.370693,30.4522383 288.547789,30.478599 C288.579754,30.4793148 290.725602,30.2963738 292.395999,30.478599 C297.983702,31.0881665 300.793438,32.5377875 303.390886,33.777065 C305.988334,35.0163424 308.557995,38.1878886 307.83285,40.3633246 C307.283105,42.0125576 306.41783,42.0125576 305.633872,42.0125576 C303.795792,42.0125576 296.163768,38.7140916 291.34052,37.6146029 C286.517272,36.5151143 286.480144,36.6743813 283.644099,35.9653699 C280.808054,35.2563586 278.931794,34.5748148 277.552903,34.3268093 C276.446776,34.1278628 275.070107,34.2664674 274.254437,33.777065 C272.421955,32.6775763 271.688963,31.9561199 272.055459,31.6126958 C273.204907,30.9121099 274.304395,30.178335 275.353925,29.411371 C276.92822,28.2609249 276.787214,27.9161572 278.652391,26.0806443 Z" id="Lips" fill="#F54623" transform="translate(289.960568, 30.193847) rotate(-90.000000) translate(-289.960568, -30.193847) "></path>
            </g>
        </g>
    </g>
</svg>